<?xml version="1.0" encoding="utf-8" ?><svg xmlns="http://www.w3.org/2000/svg" xmlns:xlink="http://www.w3.org/1999/xlink" width="1997" height="2601" viewBox="0 0 1997 2601"><path fill="#CDCECE" d="M668.272 1282.18C649.857 1273.36 601.93 1235.7 585.325 1221.9C495.995 1146.4 412.911 1012.02 390.292 875.071C363.38 712.129 426.792 528.972 507.667 407.462C689.938 133.611 986.128 -4.72681 1260.96 23.5894C1331.34 30.8401 1403.43 51.3307 1472.25 71.8411C1614.72 115.356 1756.61 173.471 1888.45 256.766C1902.26 265.516 1928.51 280.501 1940.7 290.871C1963.07 373.982 1976.55 454.387 1985.55 541.471C1989.37 578.445 1994.86 620.767 1993.02 657.652C1991.22 693.845 1984.81 734.012 1980.91 770.417C1942.73 769.322 1903.61 770.008 1865.36 770.003L1684.53 769.839C1634.29 769.917 1578.38 772.41 1528.73 766.189C1485.36 760.754 1434.05 745.199 1394.55 720.969C1367.58 704.421 1350.66 676.548 1328.9 651.817C1313.41 634.208 1292.36 615.797 1274.39 602.068C1191.8 539.273 1092.68 511.687 997.526 516.239C937.754 519.098 875.042 538.51 818.609 563.79C806.81 569.075 796.016 577.582 783.703 581.317C901.399 420.581 1059.62 337.805 1230.37 345.575C1353.41 351.173 1486.78 406.162 1574.7 522.832C1601.33 558.172 1619.41 600.094 1644.34 636.969C1680.81 690.443 1738.55 712.708 1792.47 714.989C1794.72 715.863 1794.55 715.944 1796.84 716.216C1803.61 718.052 1830.78 719.666 1837 717.919C1832.95 713.945 1831.41 713.154 1826.47 713.901C1821.03 713.225 1817.38 711.688 1811.15 711.101L1810.43 711.017C1752.89 689.265 1695.35 648.228 1664.81 578.466C1655.7 556.208 1646.74 533.118 1634.2 513.721C1537.14 363.608 1365.78 287.127 1217.98 288.271C1117.54 289.048 991.185 331.4 902.458 392.321C786.444 471.977 696.875 596.292 630.882 742.335C609.006 789.08 588.308 840.719 576.007 893.029C564.356 942.575 559.287 1017.09 573.228 1067.35C591.327 1132.62 627.166 1211.19 663.187 1263.57C666.197 1267.95 681.308 1285.26 681.098 1288.64C677.16 1287.94 671.809 1284.6 668.272 1282.18Z"/><path fill="#A5A5A4" d="M668.272 1282.18C649.857 1273.36 601.93 1235.7 585.325 1221.9C495.995 1146.4 412.911 1012.02 390.292 875.071C363.38 712.129 426.792 528.972 507.667 407.462C689.938 133.611 986.128 -4.72681 1260.96 23.5894C1331.34 30.8401 1403.43 51.3307 1472.25 71.8411C1614.72 115.356 1756.61 173.471 1888.45 256.766C1902.26 265.516 1928.51 280.501 1940.7 290.871C1963.07 373.982 1976.55 454.387 1985.55 541.471C1989.37 578.445 1994.86 620.767 1993.02 657.652C1991.22 693.845 1984.81 734.012 1980.91 770.417C1942.73 769.322 1903.61 770.008 1865.36 770.003L1684.53 769.839C1634.29 769.917 1578.38 772.41 1528.73 766.189C1485.36 760.754 1434.05 745.199 1394.55 720.969C1367.58 704.421 1350.66 676.548 1328.9 651.817C1313.41 634.208 1292.36 615.797 1274.39 602.068C1191.8 539.273 1092.68 511.687 997.526 516.239C937.754 519.098 875.042 538.51 818.609 563.79C806.81 569.075 796.016 577.582 783.703 581.317C901.399 420.581 1059.62 337.805 1230.37 345.575C1353.41 351.173 1486.78 406.162 1574.7 522.832C1601.33 558.172 1619.41 600.094 1644.34 636.969C1680.81 690.443 1738.55 712.708 1792.47 714.989C1794.72 715.863 1794.55 715.944 1796.84 716.216C1803.61 718.052 1830.78 719.666 1837 717.919C1840.06 720.978 1916.38 719.604 1926.86 719.612C1929.42 692.416 1932.35 663.221 1932.57 635.725C1933.17 562.406 1921.88 485.487 1909.45 414.17C1905.72 392.754 1898.21 352.046 1892.64 332.731L1891.22 327.734C1748.43 233.048 1583.56 164.644 1427.34 120.144C1348.75 97.76 1270.09 80.8407 1189.37 80.2062C1097.14 79.8201 1005.46 98.7606 917.85 136.302C739.258 211.946 568.042 361.599 482.154 584.611C442.349 687.966 426.925 812.304 455.592 923.906C485.015 1038.45 542.476 1138.44 609.976 1220.19C621.101 1233.67 633.492 1245.82 645.204 1258.26C649.862 1263.22 665.467 1277.28 668.272 1282.18Z"/><path fill="#CDCECE" d="M1761.56 1189.9C1778.52 1188.01 1811.93 1188.6 1830.33 1188.71C1852.48 1188.84 1883.78 1187.34 1905.25 1188.87C1901.4 1207.48 1875.81 1278.42 1868.16 1297.91C1767.55 1554.12 1600.62 1763.96 1411.33 1908.47C1278.06 2010.2 1146.65 2075.32 999.709 2129.64C967.141 2115.25 933.238 2103.41 900.439 2089.07C839.996 2062.17 780.519 2031.72 722.193 1997.81C676.321 1970.86 630.279 1937.14 587.186 1904.79C400.127 1764.35 234.69 1555.7 135.714 1304.27C131.098 1292.54 126.946 1280.23 122.305 1268.41L129.48 1269.7C133.822 1276.59 138.559 1283.37 143.336 1289.77C165.632 1319.61 187.345 1350.99 211.06 1378.91C222.402 1392.05 233.846 1405.05 245.391 1417.89C248.632 1421.52 260.397 1434.08 262.454 1437.86C271.334 1446.43 281.941 1459.11 291.243 1468.57C309.002 1486.33 327.458 1502.88 346.536 1518.14C498.877 1639.88 742.989 1751.49 924.281 1754.16C949.886 1754.53 996.453 1750.39 1021.13 1743.86C1115.01 1719.04 1213.52 1659.84 1281.69 1570.69C1310.76 1532.68 1338.39 1479.94 1360.05 1434.44C1365.88 1422.18 1376.32 1398.25 1380.88 1385.59C1397.79 1338.62 1408.53 1298.02 1438.1 1260.3C1498.8 1182.87 1585.52 1188.4 1663.95 1189.92C1696.35 1190.55 1729.12 1189.54 1761.56 1189.9Z"/><path fill="#A5A5A4" d="M1761.56 1189.9C1778.52 1188.01 1811.93 1188.6 1830.33 1188.71C1852.48 1188.84 1883.78 1187.34 1905.25 1188.87C1901.4 1207.48 1875.81 1278.42 1868.16 1297.91C1767.55 1554.12 1600.62 1763.96 1411.33 1908.47C1278.06 2010.2 1146.65 2075.32 999.709 2129.64C967.141 2115.25 933.238 2103.41 900.439 2089.07C839.996 2062.17 780.519 2031.72 722.193 1997.81C676.321 1970.86 630.279 1937.14 587.186 1904.79C400.127 1764.35 234.69 1555.7 135.714 1304.27C131.098 1292.54 126.946 1280.23 122.305 1268.41L129.48 1269.7C133.822 1276.59 138.559 1283.37 143.336 1289.77C165.632 1319.61 187.345 1350.99 211.06 1378.91C222.402 1392.05 233.846 1405.05 245.391 1417.89C248.632 1421.52 260.397 1434.08 262.454 1437.86L261.107 1439.37C268.767 1465.41 327.262 1548 344.023 1572.01C481.303 1768.61 663.842 1908.03 852.985 2002.82C901.181 2026.97 952.004 2047.02 1001.12 2068.24C1042.25 2050.23 1084.52 2034.19 1125.3 2014.74C1289.87 1936.26 1455.69 1814.73 1585.51 1660.61C1648.93 1584.89 1705.61 1500.14 1754.51 1407.95C1791.99 1336.87 1820.43 1267.97 1848.61 1190.35C1827.08 1190.49 1781.41 1192.47 1761.56 1189.9Z"/><path fill="#A5A5A4" d="M1201.88 2258.68C1221.44 2257.12 1251.59 2253.31 1265.02 2274.89C1265.82 2283.98 1265.48 2300.61 1265.49 2310.16L1265.56 2373.31C1265.9 2445 1265.91 2516.68 1265.59 2588.36C1243.6 2589.04 1220.06 2588.57 1197.96 2588.6C1197.1 2562.54 1197.63 2531.38 1197.57 2504.82C1197.38 2452.34 1197.43 2399.86 1197.7 2347.39C1187 2364.98 1155.34 2402.83 1141.67 2420.72L1089.79 2488.03C1078.91 2502.33 1067.91 2517.21 1056.73 2530.93C1038.71 2553.07 1000.23 2558.17 980.715 2536.94C958.175 2512.4 935.3 2482.63 914.83 2454.77C888.684 2419.19 857.536 2383.49 833.329 2346.09L833.396 2374.3C833.883 2445.81 833.989 2517.32 833.713 2588.83L764.49 2588.8C762.835 2490.62 765.142 2390.22 765.565 2291.92C765.855 2286.94 766.798 2275.41 769.308 2271.99C781.545 2255.35 839.179 2259.62 852.006 2265.78C862.606 2270.88 885.125 2308.08 894.858 2319.65C936.73 2369.4 973.948 2427.17 1014.64 2478.25C1026.41 2464.65 1045.32 2437.4 1057.18 2421.82L1133.64 2322.8C1146.99 2305.29 1161.65 2283.51 1176.58 2268.79C1183.31 2262.16 1193.63 2260.44 1201.88 2258.68Z"/><path fill="#A5A5A4" d="M923.136 758.688C928.362 757.965 933.635 758.036 938.849 758.899C955.866 761.725 973.496 773.338 984.035 791.042C996.181 811.444 992.959 849.396 993.107 874.621L993.419 983.251L993.48 1081.81C993.482 1101.39 994.034 1123.75 992.283 1142.78C989.626 1170.55 967.173 1193.35 946.96 1198.96C911.667 1208.75 887.182 1195.86 866.856 1158.67C864.507 1153.22 862.138 1149.22 859.323 1144.22C826.419 1137.92 789.324 1120.56 795.41 1066.95C798.037 1043.81 794.689 1042.79 781.571 1028.81C761.233 1007.86 757.218 964.958 776.017 940.952C791.576 921.939 795.162 924.783 792.156 896.905C788.285 860.995 810.652 834.127 833.839 821.38C843.553 816.04 851.911 814.725 861.898 812.968C875.075 780.505 894.426 761.632 923.136 758.688ZM863.894 1105.23C872.772 1098.83 909.579 1052.25 917.587 1041.03C921.369 1037.32 936.734 1038.75 941.909 1038.87L941.988 1065.32C930.693 1088.72 889.027 1103.27 896.005 1138.35C898.092 1148.84 904.363 1157.49 911.514 1162.64C920.193 1168.88 931.434 1170.85 941 1167.23C948.024 1164.58 953.919 1158.66 957.133 1150.02C964.214 1130.98 961.03 1014.68 961.222 985.723C935.213 994.248 905.479 992.545 882.012 974.169C866.271 961.843 855.769 947.402 851.405 923.513C849.954 915.565 848.96 905.495 852.433 898.156C854.936 892.866 859.288 889.394 863.878 888.025C868.269 886.715 873.282 887.31 877.078 890.651C885.083 897.697 884.012 918.866 888.937 929.769C898.809 951.626 927.09 961.372 945.341 957.38C951.382 956.059 956.885 952.449 960.175 945.486C963.068 939.362 962.294 828.548 959.529 817.867C957.042 808.259 950.719 802.045 943.839 798.061C939.313 795.412 934.393 794.1 929.431 794.216C919.696 795.123 894.146 805.109 895.498 820.881C899.856 829.544 905.337 827.08 912.365 833.018C934.58 851.787 947.311 877.569 944.031 913.054C943.764 915.939 942.866 917.684 941.335 919.473C934.918 922.294 924.02 919.264 918.349 914.596C899.504 899.082 913.832 875.86 890.181 860.244C870.069 846.965 842.308 844.014 830.03 873.982C823.921 892.53 829.829 916.034 826.069 937.4C815.83 952.652 796.673 958.617 798.347 983.465C800.196 1010.93 827.469 1023.46 845.636 1019.84C857.315 1018.1 861.822 1014.48 871.758 1006.95C874.39 1004.96 880.44 999.599 883.377 1003.31C889.857 1013.09 892.404 1027.31 884.945 1036.79C869.676 1057.31 849.238 1050.74 830.296 1055.4C827.079 1056.19 825.903 1063.91 825.792 1067.49C824.991 1093.47 839.578 1105.7 858.739 1105.41C860.458 1105.4 862.177 1105.34 863.894 1105.23Z"/><path fill="#A5A5A4" d="M1068.65 757.376C1086.84 756.416 1106.82 764.926 1120.68 780.426C1130.45 791.359 1133.92 802.33 1137.81 817.503C1159.07 817.724 1179.84 820.923 1196.05 841.583C1212.26 862.241 1209.33 890.332 1208.76 917.591C1252.16 956.229 1246.16 1005.33 1209.46 1045.88C1210.58 1093.43 1204.36 1125.31 1163.35 1139.21C1157.19 1141.3 1146.39 1141.7 1141.89 1146.35C1132.75 1172.38 1124.14 1184.49 1102.88 1196.02C1078.88 1211.54 1026.04 1198 1015.39 1164.23C1010.8 1149.67 1012.32 1084.06 1012.3 1065.43L1012.17 943.33C1012.12 903.622 1011.8 863.502 1011.93 823.791C1012.5 817.008 1012.34 806.695 1014.96 800.761C1026.59 774.419 1046.85 763.067 1068.65 757.376ZM1042.51 956.691C1063.92 943.274 1073.53 946.477 1096.39 955.76C1124.76 967.277 1156.39 1001.81 1147.16 1045.32C1146.21 1049.82 1143.48 1054.56 1140.97 1057.99C1122.93 1067.89 1117.08 1061.45 1115.51 1036.84C1114.08 1014.53 1105.45 1002.5 1090.65 992.539C1079.27 984.881 1054.24 975.996 1043.56 987.484C1039.68 1004.28 1042.67 1104.51 1042.27 1128.71C1042.8 1134.86 1043.53 1145.36 1045.68 1150.6C1049 1158.69 1056.19 1164.12 1063.25 1166.25C1077.16 1170.45 1100.5 1163.91 1105.25 1143.94C1106.14 1140.18 1103.66 1134.03 1101.64 1131.4C1094.92 1121.76 1078.9 1113.26 1073.63 1102.61C1066.56 1088.31 1065.56 1059.12 1065.95 1042.23C1069.4 1040.93 1074.2 1038.87 1077.64 1038.37C1083.72 1037.82 1093.14 1036.09 1093.43 1046.03C1094.83 1095.13 1130.89 1127.93 1164.28 1096.43C1178.88 1082.66 1175.37 1046.59 1174.7 1022.27C1187.2 1016.76 1195.64 1011.87 1201.24 995.675C1208.37 975.018 1200.65 949.978 1185.07 940.749C1168.72 931.064 1154.73 940.173 1140.5 950.371C1132.78 956.054 1118.1 963.057 1113.78 947.831C1103.13 910.216 1152.34 899.897 1171.27 898.649C1171.38 886.34 1171.42 881.117 1169.32 868.904C1143.98 831.068 1110.25 872.595 1096.67 904.014C1085.21 904.176 1066.21 910.442 1066.54 888.612C1066.95 861.277 1101.74 848.118 1103.63 827.324C1106.06 800.733 1077.79 793.732 1063.8 795.355C1055.86 798.882 1049.67 802.551 1045.72 812.933C1039.09 830.364 1042.15 930.932 1042.51 956.691Z"/><path fill="#A5A5A4" d="M512.46 2254.89C565.546 2251.63 648.733 2257.5 698.634 2279.54C694.96 2292.86 689.297 2327.93 686.101 2335.45C680.991 2337.29 635.458 2326.66 627.283 2325.03C588.462 2317.27 547.643 2312.42 508.349 2316.74C468.719 2321.1 417.658 2327.07 389.404 2367.19C367.555 2396.73 369.912 2465.48 396.208 2490.35C445.72 2537.18 525.815 2531.2 584.325 2529.58C597.067 2529.22 611.758 2525.92 624.332 2524.47C640.437 2519.27 670.068 2514.3 688.036 2509.7C691.89 2526.08 693.978 2546.16 695.107 2563.25C695.257 2565.53 695.877 2570.52 694.551 2572.08C685.043 2583.28 592.064 2592.27 574.995 2593.35C517.839 2596.98 443.158 2595.55 389.034 2569.38C369.114 2559.92 350.802 2545.5 335.122 2526.91C311.135 2498.26 303.85 2464.23 302.712 2422.44C301.914 2387.62 311.687 2353.78 329.912 2328.28C370.145 2271.75 455.331 2257.4 512.46 2254.89Z"/><path fill="#A5A5A4" d="M1426.5 2263.63C1452.19 2261.11 1493.34 2262.67 1519.65 2262.71L1697.66 2262.87L1697.57 2319.42L1472.84 2319.35C1455.88 2319.31 1439.92 2320.61 1427.18 2337.63C1413.56 2355.82 1415.83 2381.17 1416.15 2404.75C1444.09 2405.84 1474.1 2405.11 1502.12 2405.05L1622.16 2405.53C1642.54 2405.59 1662.92 2405.48 1683.29 2405.21L1683.42 2459.97C1656.58 2460.64 1628.64 2459.61 1601.7 2459.68C1539.55 2460.36 1477.4 2460.32 1415.25 2459.55C1414.28 2499 1415.63 2547.41 1415.6 2588.09L1345.61 2588.81C1346.02 2539.13 1346.11 2489.44 1345.89 2439.75C1345.78 2419.14 1344.32 2372.17 1346.49 2353.54C1348.04 2339.52 1352.01 2326.14 1358.11 2314.41C1375.33 2280.83 1397.96 2271.22 1426.5 2263.63Z"/><path fill="#A5A5A4" d="M1079.94 566.575C1088.23 566.447 1103.85 564.921 1110.69 569.443C1113.13 575.864 1112.58 667.045 1112.65 679.721C1120.09 681.868 1137 690.086 1144.77 694.169C1204.57 725.581 1254.68 776.275 1287.96 848.915C1297.87 870.529 1301.97 887.503 1309.27 909.502C1351.89 910.149 1395.5 909.686 1438.13 909.398C1454.11 889.442 1477.13 868.4 1495.35 850.72L1821.67 849.835C1844.1 804.212 1903.57 832.95 1889.27 879.216C1874.95 911.655 1836.05 911.97 1820.12 879.823C1747.36 878.372 1673.57 880.715 1600.72 879.583C1571.22 879.125 1540.8 880.275 1511.43 878.762C1499.3 895.387 1468.24 927.221 1453.38 941.502C1437.02 942.917 1411.98 942.034 1395.11 942.115L1282.49 942.671C1255.38 814.061 1175.11 736.637 1079.8 703.228L1079.52 616.747C1079.48 602.118 1079 580.486 1079.94 566.575Z"/><path fill="#A5A5A4" d="M1283.47 1026.49L1531.59 1026.42C1578.98 1026.38 1632.77 1024.98 1679.41 1027.55C1688.09 1036 1694.94 1044.88 1704.44 1053.8L1841.35 1053.66C1843.54 1049.56 1845.75 1045.39 1848.51 1041.89C1863.17 1023.27 1893.82 1023.88 1907.18 1045.02C1912 1052.55 1914.16 1062.37 1913.14 1072.08C1909.15 1108.08 1858.99 1117.58 1841.79 1081.34C1821.01 1082.53 1796.8 1081.92 1775.85 1081.91C1745.59 1082.04 1715.33 1081.92 1685.07 1081.54C1677.07 1074.6 1668.07 1066.66 1661.46 1057.55C1644.87 1056.55 1625.51 1057.06 1608.73 1057L1505.87 1057.17C1441.15 1056.81 1376.42 1056.91 1311.7 1057.47C1303.07 1086.33 1291.99 1115.04 1276.88 1138.95C1234.39 1206.13 1176.92 1256.62 1112.14 1278.2L1112.45 1385.51C1101.91 1389.58 1091.17 1392.72 1080.3 1394.9C1078.9 1352.36 1080.04 1298.65 1080.22 1255.32C1089.69 1253.08 1099.03 1249.99 1108.17 1246.07C1179.84 1214.81 1255.09 1140.26 1278.69 1044.67C1280.23 1038.46 1281 1032.13 1283.47 1026.49Z"/><path fill="#A5A5A4" d="M1604.21 1073.73C1608.46 1073.75 1612.46 1073.88 1616.69 1074.73C1642.59 1079.92 1655.14 1121.14 1629.7 1140.42C1619.23 1148.36 1606.37 1150.87 1594.47 1146.41C1584.14 1142.54 1579.13 1136.48 1574.07 1124.5L1359.91 1124.89C1352.54 1139.84 1347.13 1153.25 1338.68 1167.98C1306.21 1224.56 1264.13 1269.68 1215.75 1301.04L1215.85 1304.96C1216.49 1324.77 1211.79 1332.63 1198.09 1340.5C1176.32 1352.79 1140.66 1338.24 1144.82 1301.22C1148.3 1270.33 1177.23 1267.56 1197.41 1273.77C1207.93 1263.31 1221.88 1255.4 1232.38 1245.27C1275.14 1203.99 1310.7 1156.52 1334.34 1094.14C1414.44 1093.86 1494.54 1094.21 1574.63 1095.19C1575.81 1091.38 1577.56 1087.3 1579.05 1083.62C1589.18 1076.45 1593.08 1074.58 1604.21 1073.73Z"/><path fill="#A5A5A4" d="M1750.39 908.569C1762.15 908.914 1774.99 912.187 1783.47 923.834C1788.09 930.32 1790.54 938.945 1790.26 947.791C1789.26 982.301 1748.39 995.34 1729.66 977.501C1723.6 971.727 1722.03 969.673 1717.46 962.195C1649.02 962.197 1579.86 962.865 1511.48 961.834C1501.41 973.944 1490.04 987.281 1479.13 997.95L1335.64 998.499L1283.3 998.589L1283.37 969.395C1303.18 968.173 1328.69 969.095 1348.77 969.2L1460.6 970.016C1468.74 958.7 1490.04 933.75 1500.43 927.319C1505.95 931.155 1508.58 932.22 1514.96 932.425C1536.09 933.105 1557.28 933.136 1578.42 933.277C1624.65 933.693 1670.87 933.797 1717.09 933.589C1725.55 915.103 1734.33 910.34 1750.39 908.569Z"/><path fill="#A5A5A4" d="M891.615 572.574C901.627 571.998 913.758 572.263 923.931 572.145C924.643 613.463 924.456 661.197 923.973 702.553C833.243 728.217 754.648 800.156 722.5 917.309C701.412 917.97 678.895 917.589 657.703 917.68L625.641 917.752L625.477 886.495L695.568 886.451C703.087 866.847 706.997 855.397 716.157 836.261C750.791 763.9 827.056 699.014 891.619 681.987C891.407 645.516 891.406 609.044 891.615 572.574Z"/><path fill="#A5A5A4" d="M625.575 1059.3L726.404 1059.27C729.304 1067.52 732.338 1075.7 735.504 1083.78C775.576 1185.59 843.329 1225.49 922.01 1258.61C922.797 1302.12 921.782 1350.46 921.657 1394.36C916.998 1395.79 895.106 1387.98 889.482 1386.2L889.292 1279.69C886.891 1278.83 884.504 1277.9 882.134 1276.9C805.253 1244.7 738.204 1184.7 700.833 1089.37C677.748 1089.88 653.385 1089.31 630.206 1089.22C628.34 1080.78 626.764 1068.19 625.575 1059.3Z"/><path fill="#A5A5A4" d="M823.06 610.089C844.78 608.653 872.866 629.33 858.308 662.012C845.76 690.183 826.593 678.625 812.385 685.689C778.301 702.636 743.389 739.943 718.637 774.345C701.045 799.396 689.81 822.968 677.477 847.938L675.109 851.687C669.926 854.629 649.372 850.886 642.542 850.277C669.821 777.38 701.03 732.177 752.451 686.067C757.139 680.59 785.421 664.554 787.204 658.918C796.836 628.475 788.541 618.825 823.06 610.089Z"/><path fill="#A5A5A4" d="M1174.05 610.027C1198.78 608.481 1215.47 624.434 1214.99 657.727C1221.66 664.299 1236.11 674.685 1243.85 680.83C1261.57 694.88 1274.84 706.863 1290.65 724.582C1309.61 723.159 1336.44 728.541 1339.62 758.752C1340.52 766.938 1338.69 775.231 1334.59 781.55C1327.11 793.3 1315.46 797.346 1304.28 798.385C1293.51 799.349 1281.22 793.91 1273.96 783.024C1266.54 771.876 1266.66 765.391 1267.36 751.705C1248.58 728.907 1214.81 696.058 1189.69 684.763C1178.68 681.783 1168.46 684.48 1158.06 677.297C1144.41 667.872 1135.43 649.536 1145.43 630.652C1153 616.365 1161.53 613.341 1174.05 610.027Z"/><path fill="#A5A5A4" d="M676.538 1123.15C681.654 1123.54 693.616 1150.94 697.806 1158.26C723.495 1203.09 766.92 1249.44 806.018 1272.58C857.04 1257.79 880.612 1319.26 839.317 1340.5C811.922 1348.19 795.52 1341.07 789.891 1303.76C747.674 1277.21 706.728 1234.13 678.066 1185.61C669.483 1171.08 659.758 1149.72 652.198 1133.86C660.219 1130.92 668.635 1126.79 676.538 1123.15Z"/><path fill="#A5A5A4" d="M992.303 579.507C1001.75 578.414 1007.1 578.199 1016.39 582.436C1034.19 590.551 1047.19 614.699 1033.74 636.879C1028.69 645.209 1023.67 648.735 1016.31 652.611C1015.27 679.388 1017.17 722.895 1015.61 751.218C1015.05 752.324 1014.48 753.43 1013.92 754.536L986.114 754.627C985.378 720.374 984.989 686.109 984.948 651.841C951.974 634.417 957.633 590.623 992.303 579.507Z"/><path fill="#A5A5A4" d="M984.515 1196.17L1014.5 1196.11L1014.48 1280.96C1046.21 1305.52 1047.21 1324.52 1046.38 1370.01C1046.22 1378.99 1046.99 1387.24 1045.68 1396.4L1017.71 1396.86C1016.88 1341.3 1026.07 1324.6 984.557 1293C984.356 1260.72 984.342 1228.44 984.515 1196.17Z"/><path fill="#A5A5A4" d="M622.964 971.588L717.461 972.285C717.498 981.471 717.827 993.455 716.861 1002.28C685.867 1003.07 653.554 1002.54 622.457 1002.6C622.324 994.335 622.075 979.167 622.964 971.588Z"/><path fill="#787979" fill-opacity="0.019607844" d="M1792.47 714.989L1790.87 711.836C1788.49 711.646 1788.48 711.893 1786.54 710.21L1787.94 708.897C1789.8 708.723 1792.62 708.186 1794.08 709.379C1797.79 712.423 1805.58 711.227 1810.43 711.017L1811.15 711.101L1814.8 713.629L1814.25 714.752C1808.05 715.558 1795.9 713.916 1792.47 714.989Z"/><path fill="#ECECEC" fill-opacity="0.60784316" d="M1826.47 713.901C1831.41 713.154 1832.95 713.945 1837 717.919C1830.78 719.666 1803.61 718.052 1796.84 716.216C1803.83 715.945 1821.04 717.427 1826.49 715.638L1826.47 713.901Z"/><path fill="#ECECEC" fill-opacity="0.21176471" d="M1811.15 711.101C1817.38 711.688 1821.03 713.225 1826.47 713.901L1826.49 715.638C1821.04 717.427 1803.83 715.945 1796.84 716.216C1794.55 715.944 1794.72 715.863 1792.47 714.989C1795.9 713.916 1808.05 715.558 1814.25 714.752L1814.8 713.629L1811.15 711.101Z"/><path fill="#A5A5A4" fill-opacity="0.79215688" d="M122.305 1268.41C120.999 1264.98 119.47 1261.92 119.36 1258.19L120.574 1257.83C124.958 1261.53 126.27 1264.39 129.48 1269.7L122.305 1268.41Z"/><path fill="#CDCECE" d="M906.124 0L956.224 0C952.773 4.61139 950.439 6.09553 945.801 8.27219C917.54 21.5361 888.295 32.314 859.865 44.9851C847.415 50.6106 835.037 56.5042 822.737 62.6634C818.111 64.9635 807.86 70.5874 803.705 72.0251C652.278 156.534 520.293 262.664 426.696 443.164C403.02 488.173 383.035 536.293 367.068 586.734C326.146 719.402 324.937 848.698 367.914 980.984C429.891 1171.75 579.104 1293.06 721.555 1366.78C766.031 1389.84 811.626 1409.06 858.043 1424.31C954.818 1456.12 1032.06 1463.94 1130.45 1433.75C1196.88 1413.36 1251.63 1386.43 1308.46 1335.55C1320.82 1324.47 1334.4 1308.17 1346.39 1298.41C1348.29 1295.16 1356.22 1287.18 1359.1 1284.12C1328.81 1413.36 1244.44 1557.2 1153.16 1622.59C1130.65 1640.06 1106.69 1651.14 1082.44 1663.43C956.162 1727.39 821.386 1695.7 694.312 1649.33C543.523 1594.3 395.518 1508.79 271.573 1381.69C196.448 1304.66 144.5 1219.92 97.4818 1110.85C67.2485 1039.53 44.2937 963.37 29.1992 884.307C-4.4254 715.323 -0.580215 581.708 32.6061 412.245C40.3933 372.48 49.282 335.189 57.7415 295.958C69.6328 284.275 110.571 260.409 124.622 251.511C171.718 221.688 221.841 197.975 271.043 174.738C413.777 106.536 561.221 56.3912 711.334 24.9968C755.196 16.3327 800.401 11.8354 844.502 5.39649C856.991 3.57303 897.286 3.36255 906.124 0Z"/><path fill="#A5A5A4" d="M906.124 0L956.224 0C952.773 4.61139 950.439 6.09553 945.801 8.27219C917.54 21.5361 888.295 32.314 859.865 44.9851C847.415 50.6106 835.037 56.5042 822.737 62.6634C818.111 64.9635 807.86 70.5874 803.705 72.0251C796.522 66.7554 766.254 74.9855 757.124 76.6702C660.794 93.9517 565.461 119.618 471.765 153.496C395.409 181.737 320.077 214.479 246.001 251.621C208.704 270.223 147.122 302.897 112.07 327.586C100.564 368.49 91.7421 411.497 84.3266 453.902C58.7848 599.96 56.0946 710.849 81.7603 855.948C93.23 919.293 109.397 981.036 130.035 1040.31C145.605 1083.88 168.279 1131.53 189.793 1170.44C300.966 1371.49 452.166 1475.93 626.62 1558.28C682.625 1584.81 740.047 1605.96 798.423 1621.56C881.079 1643.6 937.745 1655.17 1020.55 1625.57C1046.95 1616.23 1072.67 1603.91 1097.42 1588.75C1178.73 1539 1235.04 1470.8 1292.98 1383.55C1310.08 1357.8 1331.93 1328.7 1346.86 1300.97L1346.39 1298.41C1348.29 1295.16 1356.22 1287.18 1359.1 1284.12C1328.81 1413.36 1244.44 1557.2 1153.16 1622.59C1130.65 1640.06 1106.69 1651.14 1082.44 1663.43C956.162 1727.39 821.386 1695.7 694.312 1649.33C543.523 1594.3 395.518 1508.79 271.573 1381.69C196.448 1304.66 144.5 1219.92 97.4818 1110.85C67.2485 1039.53 44.2937 963.37 29.1992 884.307C-4.4254 715.323 -0.580215 581.708 32.6061 412.245C40.3933 372.48 49.282 335.189 57.7415 295.958C69.6328 284.275 110.571 260.409 124.622 251.511C171.718 221.688 221.841 197.975 271.043 174.738C413.777 106.536 561.221 56.3912 711.334 24.9968C755.196 16.3327 800.401 11.8354 844.502 5.39649C856.991 3.57303 897.286 3.36255 906.124 0Z"/></svg>